<svg width="1600" height="900" viewBox="0 0 1600 900" fill="none" xmlns="http://www.w3.org/2000/svg">
  <rect width="1600" height="900" fill="#F8F2EA"/>
  <rect x="40" y="40" width="1520" height="820" rx="28" fill="#FFFDF9" stroke="#E7D9C9"/>
  <rect x="70" y="70" width="1460" height="122" rx="24" fill="#FFF9F1" stroke="#E8DACB"/>
  <text x="110" y="118" fill="#A18C77" font-family="Arial, sans-serif" font-size="18" letter-spacing="2">PROFIL ACTIF</text>
  <circle cx="140" cy="150" r="28" fill="#D96E3B"/>
  <circle cx="140" cy="141" r="11" fill="#F7DFC7"/>
  <path d="M120 168C125 155 137 151 140 151C143 151 155 155 160 168" fill="#F7DFC7"/>
  <text x="182" y="147" fill="#1F3C40" font-family="Arial, sans-serif" font-weight="700" font-size="30">Eduardo</text>
  <text x="182" y="176" fill="#6F7F81" font-family="Arial, sans-serif" font-size="24">eduardo@cargonautes.fr</text>

  <rect x="920" y="96" width="90" height="54" rx="14" fill="#EEF5F3" stroke="#C7DBD6"/>
  <text x="950" y="130" fill="#388783" font-family="Arial, sans-serif" font-weight="700" font-size="24">Admin</text>
  <rect x="1024" y="96" width="162" height="54" rx="14" fill="#FFFDFB" stroke="#D8DAD8"/>
  <text x="1049" y="130" fill="#2A4144" font-family="Arial, sans-serif" font-weight="700" font-size="24">Se déconnecter</text>

  <g>
    <rect x="1210" y="96" width="56" height="54" rx="14" fill="#E5F1EE" stroke="#B6D3CB"/>
    <circle cx="1238" cy="123" r="10" fill="#3B8E89"/>
    <rect x="1280" y="96" width="56" height="54" rx="14" fill="#FFFDFB" stroke="#D8DAD8"/>
    <rect x="1302" y="113" width="14" height="20" rx="3" fill="#6A7D80"/>
    <rect x="1350" y="96" width="56" height="54" rx="14" fill="#FFFDFB" stroke="#D8DAD8"/>
    <path d="M1378 109L1388 123L1378 137L1368 123L1378 109Z" fill="#6A7D80"/>
    <rect x="1420" y="96" width="56" height="54" rx="14" fill="#FFFDFB" stroke="#D8DAD8"/>
    <path d="M1438 115H1458V121H1438V115ZM1438 126H1458V132H1438V126Z" fill="#6A7D80"/>
  </g>

  <rect x="70" y="210" width="1460" height="62" rx="18" fill="#F2FAF7" stroke="#CFE2DA"/>
  <circle cx="104" cy="241" r="8" fill="#389381"/>
  <text x="126" y="248" fill="#2D6F68" font-family="Arial, sans-serif" font-weight="700" font-size="24">Profil chargé et synchronisé</text>
  <text x="980" y="248" fill="#6D807D" font-family="Arial, sans-serif" font-size="22">Les états système vivent ici, jamais dans le bloc profil.</text>

  <text x="70" y="334" fill="#A18C77" font-family="Arial, sans-serif" font-size="20" letter-spacing="2">LECTURE D’ANALYSE</text>
  <text x="70" y="386" fill="#17383D" font-family="Arial, sans-serif" font-weight="700" font-size="58">Pilotage manager</text>
  <text x="70" y="426" fill="#667678" font-family="Arial, sans-serif" font-size="26">Question principale d’abord. Réglages ensuite. Utilitaires à part.</text>

  <rect x="70" y="470" width="500" height="148" rx="24" fill="#F6FCFA" stroke="#CDE2DA"/>
  <text x="102" y="516" fill="#315358" font-family="Arial, sans-serif" font-weight="700" font-size="24" letter-spacing="1">JE M’INFORME SUR</text>
  <rect x="102" y="540" width="436" height="58" rx="16" fill="#FFFFFF" stroke="#B9D4CD"/>
  <text x="126" y="578" fill="#163338" font-family="Arial, sans-serif" font-weight="700" font-size="26">Toute l’équipe</text>
  <path d="M492 562L508 578L524 562" stroke="#4F6B70" stroke-width="4" stroke-linecap="round" stroke-linejoin="round"/>

  <rect x="594" y="470" width="520" height="148" rx="24" fill="#FFF8F5" stroke="#E6D4CC"/>
  <text x="626" y="516" fill="#6A5B58" font-family="Arial, sans-serif" font-weight="700" font-size="24" letter-spacing="1">PÉRIODE ET LECTURE</text>
  <rect x="626" y="540" width="142" height="58" rx="16" fill="#DFF0EA" stroke="#B6D3CB"/>
  <text x="662" y="578" fill="#348B84" font-family="Arial, sans-serif" font-weight="700" font-size="26">Semaine</text>
  <rect x="782" y="540" width="116" height="58" rx="16" fill="#FFFFFF" stroke="#D8DAD8"/>
  <text x="822" y="578" fill="#294246" font-family="Arial, sans-serif" font-weight="700" font-size="26">Mois</text>
  <rect x="912" y="540" width="170" height="58" rx="16" fill="#FFFFFF" stroke="#D8DAD8"/>
  <text x="954" y="578" fill="#294246" font-family="Arial, sans-serif" font-weight="700" font-size="26">Catégories</text>

  <rect x="1138" y="470" width="392" height="148" rx="24" fill="#FFFDFB" stroke="#DDD7D0"/>
  <text x="1170" y="516" fill="#6A5B58" font-family="Arial, sans-serif" font-weight="700" font-size="24" letter-spacing="1">OUTILS</text>
  <rect x="1170" y="540" width="232" height="58" rx="16" fill="#FFFFFF" stroke="#D8DAD8"/>
  <text x="1196" y="578" fill="#294246" font-family="Arial, sans-serif" font-size="26">28/04/2026</text>
  <rect x="1422" y="540" width="76" height="58" rx="16" fill="#FFF3ED" stroke="#E7C9B9"/>
  <path d="M1450 558H1470V578H1450V558Z" fill="#D96E3B"/>

  <rect x="70" y="662" width="1460" height="158" rx="24" fill="#FFFFFF" stroke="#E7DDD3"/>
  <text x="104" y="708" fill="#8F7E6F" font-family="Arial, sans-serif" font-size="20" letter-spacing="2">SYSTÈME TYPOGRAPHIQUE</text>
  <text x="104" y="754" fill="#17383D" font-family="Arial, sans-serif" font-weight="700" font-size="44">H1 visible, H2 lisible, paragraphes calmes, états séparés.</text>
  <text x="104" y="792" fill="#6A7B7D" font-family="Arial, sans-serif" font-size="24">Palette Dawn Forge : ivoire chaud, turquoise atelier, cuivre narratif, gris-ardoise lisible.</text>
</svg>
